<?xml version="1.0" standalone="no"?>
<!DOCTYPE svg PUBLIC "-//W3C//DTD SVG 20010904//EN"
 "http://www.w3.org/TR/2001/REC-SVG-20010904/DTD/svg10.dtd">
<svg version="1.0" xmlns="http://www.w3.org/2000/svg"
 width="154.000000pt" height="184.000000pt" viewBox="0 0 154.000000 184.000000"
 preserveAspectRatio="xMidYMid meet">

<g transform="translate(0.000000,184.000000) scale(0.100000,-0.100000)"
fill="#000000" stroke="none">
<path d="M735 1417 c-51 -9 -63 -13 -127 -41 -43 -19 -119 -75 -155 -114 -39
-44 -90 -158 -104 -233 -34 -191 77 -397 260 -485 72 -35 80 -37 186 -38 95
-1 118 2 170 23 127 52 203 121 262 240 34 70 37 80 37 175 1 104 -11 159 -47
226 -49 90 -117 156 -207 201 -69 34 -81 37 -140 44 -30 4 -62 8 -70 9 -8 2
-37 -1 -65 -7z m91 -224 c3 -10 10 -26 15 -35 5 -10 9 -24 9 -31 0 -8 18 -34
39 -58 37 -42 75 -67 134 -88 15 -6 27 -17 27 -26 0 -8 -12 -17 -27 -21 -86
-20 -182 -119 -195 -199 -2 -11 -11 -21 -20 -23 -12 -2 -20 8 -27 36 -22 80
-103 161 -183 183 -54 14 -51 42 5 58 75 23 177 126 177 181 0 17 18 40 32 40
5 0 11 -8 14 -17z"/>
</g>
</svg>
